<?xml version="1.0" encoding="utf-8"?>
<!-- Generator: Adobe Illustrator 21.0.0, SVG Export Plug-In . SVG Version: 6.00 Build 0)  -->
<svg version="1.1" id="Layer_1" xmlns="http://www.w3.org/2000/svg" xmlns:xlink="http://www.w3.org/1999/xlink" x="0px" y="0px"
	 viewBox="0 0 360 360" style="enable-background:new 0 0 360 360;" xml:space="preserve">
<style type="text/css">
	.st0{
		fill:none;
		stroke:#18494C;
		stroke-width:12;
		stroke-miterlimit:10;
	}
	.st1{
		fill:none;
		stroke:#18494C;
		stroke-width:11.6521;
		stroke-miterlimit:10;
		}
	.st2{
		fill:none;
		stroke:#18494C;
		stroke-width:12.2824;
		stroke-miterlimit:10;
	}
	.st3{
		fill:none;
		stroke:#18494C;
		stroke-width:12;
		stroke-linejoin:round;
		stroke-miterlimit:10;
	}
</style>
<path class="st0" d="M87.5,288v34.3v22.4c0,4-2.7,7.3-6.1,7.3H14.1c-3.4,0-6.1-3.3-6.1-7.3v-22.4v-41.7v-65.2V125
	c-0.3,0.8-0.5,1.8-0.5,2.7v176.8v40.3c0,4.3,3.5,7.7,7.7,7.7h168.5c4.3,0,7.7-3.5,7.7-7.7v-40.3V288"/>
<path class="st1" d="M191.5,272h153c4.1,0,7.5-3.1,7.5-7V15c0-3.9-3.3-7-7.5-7h-329C11.3,8,8,11.1,8,15v103.3"/>
<path class="st2" d="M191.5,288V120.1c0-4.5-3.5-8.1-7.7-8.1H15.2c-3.3,0-6.1,2.2-7.2,5.3v94.6c0-4.2,2.7-7.7,6.1-7.7h67.3
	c3.4,0,6.1,3.4,6.1,7.7V288"/>
<path class="st3" d="M184,352h88l-42.4-14.1c-4.5-1.5-8.5-4.3-11.2-8.2c-2.4-3.4-2.4-5.5-2.4-9.7v-48"/>
</svg>
