<?xml version="1.0" encoding="utf-8"?>
<svg version="1.1" id="Layer_2" xmlns="http://www.w3.org/2000/svg" xmlns:xlink="http://www.w3.org/1999/xlink" x="0px" y="0px"
	 viewBox="0 0 360 360" style="enable-background:new 0 0 360 360;" xml:space="preserve">
	 <style type="text/css">
		 .st0{
		   fill:none;
		   stroke:#FDFDF9;
		   stroke-width:12;
		   stroke-miterlimit:10;
		 }
	 </style>
<path class="st0" d="M158.1,236.8l-67.9,67.9c-9.4,9.4-24.6,9.4-33.9,0v0c-9.4-9.4-9.4-24.6,0-33.9l67.9-67.9
	c4.1-4.1,9.2-6.4,14.5-6.9l20.6-20.6c-17.7-7.9-39.2-4.5-53.7,10l-67.5,67.5c-18.8,18.8-18.8,49.4,0,68.2l0,0
	c18.8,18.8,49.4,18.8,68.2,0l67.5-67.5c13.1-13.1,17.1-31.7,12-48.2L164,227.3C162.8,230.8,160.9,234.1,158.1,236.8z"/>
<path class="st0" d="M56.3,270.8c-9.4,9.4-9.4,24.6,0,33.9v0c9.4,9.4,24.6,9.4,33.9,0l67.9-67.9c2.8-2.8,4.7-6,5.8-9.5l-14.2,14.2
	c-7.8,7.8-20.5,7.8-28.3,0s-7.8-20.5,0-28.3l17.2-17.2c-5.3,0.5-10.5,2.8-14.5,6.9L56.3,270.8z"/>
<path class="st0" d="M320.9,38.4L320.9,38.4c-18.8-18.8-49.4-18.8-68.2,0l-67.5,67.5c-14.5,14.5-17.8,36-10,53.7l21.3-21.3
	c0.5-5.3,2.8-10.5,6.9-14.5l67.9-67.9c9.4-9.4,24.6-9.4,33.9,0l0,0c9.4,9.4,9.4,24.6,0,33.9l-67.9,67.9c-2.8,2.8-6,4.7-9.5,5.8
	l-22.7,22.7c16.5,5,35.2,1,48.2-12l67.5-67.5C339.7,87.8,339.7,57.2,320.9,38.4z"/>
<path class="st0" d="M241.5,121.5c7.8,7.8,7.8,20.5,0,28.3l-13.7,13.7c3.5-1.1,6.7-3.1,9.5-5.8l67.9-67.9c9.4-9.4,9.4-24.6,0-33.9
	l0,0c-9.4-9.4-24.6-9.4-33.9,0l-67.9,67.9c-4.1,4.1-6.4,9.2-6.9,14.5l16.8-16.8C221,113.7,233.7,113.7,241.5,121.5z"/>
<path class="st0" d="M185.9,205.4l19.2-19.2"/>
<path class="st0" d="M175.1,159.6l-15.8,15.8"/>
<path class="st0" d="M164,227.3l21.9-21.9"/>
<path class="st0" d="M159.3,175.4L138.7,196"/>
<path class="st0" d="M138.7,196l-17.2,17.2c-7.8,7.8-7.8,20.5,0,28.3s20.5,7.8,28.3,0l14.2-14.2"/>
<path class="st0" d="M205.1,186.2l22.7-22.7"/>
<path class="st0" d="M196.4,138.3l-21.3,21.3"/>
<path class="st0" d="M227.8,163.5l13.7-13.7c7.8-7.8,7.8-20.5,0-28.3s-20.5-7.8-28.3,0l-16.8,16.8"/>
</svg>
