<?xml version="1.0" encoding="utf-8"?>
<!-- Generator: Adobe Illustrator 21.0.2, SVG Export Plug-In . SVG Version: 6.00 Build 0)  -->
<svg version="1.1" id="Layer_1" xmlns="http://www.w3.org/2000/svg" xmlns:xlink="http://www.w3.org/1999/xlink" x="0px" y="0px"
	 viewBox="0 0 360 360" style="enable-background:new 0 0 360 360;" xml:space="preserve">
<g>
	<style type="text/css">
		.st0{
			stroke:#FDFDF9;
			fill:#FDFDF9;
		}
	</style>
	<polyline class="st0" points="326.2,174.4 307.6,128 316.9,128 330.8,165.1 344.7,128 354,128 335.5,174.4 335.5,220.7 326.2,230 	"/>
	<path class="st0" d="M307.6,220.7c-0.3,0.4-8.4,8.2-9.3,9.3h-18.5V128h9.3c0,0,0,90.5,0,92.7H307.6z"/>
	<path class="st0" d="M233.5,230c-0.2-0.6,0-102,0-102s27.8,9.3,28,28.3c-0.2,18.1-11.1,22.3-10.9,22.6c0.1,0.1,10.7,4.7,10.7,23.2
		S233.5,230,233.5,230C233.1,230.2,234.1,230.2,233.5,230z M242.8,173.2c1.2-1.2,9.3-3.5,9.3-17.4c0-8.1-6.7-11.2-9.3-12.7
		C242.8,151.2,242.8,170.9,242.8,173.2z M252,202.2c0-13.9-8.1-17.4-9.3-18.5c0,3.5,0,30.1,0,31.3C242.8,214.9,252,211.4,252,202.2z
		"/>
	<path class="st0"  d="M196.4,248.5c0,0,0-128.3,0-129.8l9.3-9.3c0.5,0.2,0,129.8,0,129.8L196.4,248.5z"/>
	<path class="st0"  d="M145.4,137.3c0,0,0-8.5,0-9.3c0,0,27.4,0,27.8,0v9.3H164v83.4l-9.3,9.3v-92.7H145.4z"/>
	<path class="st0"  d="M120.8,178.9L120.8,178.9c-0.2-0.4,10.7-4.6,10.9-22.6c-0.2-19-28-28.3-28-28.3s-0.2,101.3,0,102c0,0,5.8-5.8,9.3-9.3v-5.8
		c0-1.2,0-27.8,0-31.3l18.5,46.4h9.3L120.8,178.9z M113,143.1c2.6,1.6,9.3,4.6,9.3,12.7c0,13.9-8.1,16.2-9.3,17.4
		C113,170.9,113,151.2,113,143.1z"/>
	<path class="st0"  d="M84.5,155.8C81.1,128,76.7,128,71.1,128s-11.1,0-13.4,27.8c-2.2,28.1,6,74.2,13.4,74.2C78.5,230,87.8,183.8,84.5,155.8z
		 M71.2,211.4c-2.5,0-5.2-32.5-4.5-52.3c0.7-19.6,2.6-19.6,4.5-19.6s3.3,0,4.5,19.6C76.8,178.9,73.7,211.4,71.2,211.4z"/>
	<path class="st0"  d="M38.8,136.9c0-1.2,0-9.3,0-9.3s-11.6,5.8-17.4,10.4C15,143.2,11,146.2,11,155.5c0,16.4,14.8,26.8,18,42.1
		c0.3,1.5,0.5,3,0.5,4.6c0,9.3-17.4,18.5-18.5,18.5c0,1.2,0,9.3,0,9.3s11.6-5.8,17.4-10.4c6.4-5.1,10.4-8.1,10.4-17.4
		c0-5.6-1.5-11-4.2-15.9c-3-5.4-6.1-10.6-9.2-15.9c-2.6-4.5-5.2-9.5-5.2-14.8C20.3,146.2,37.7,136.9,38.8,136.9z"/>
</g>
</svg>
