<?xml version="1.0" encoding="utf-8"?>
<!-- Generator: Adobe Illustrator 21.0.0, SVG Export Plug-In . SVG Version: 6.00 Build 0)  -->
<svg version="1.1" id="Layer_1" xmlns="http://www.w3.org/2000/svg" xmlns:xlink="http://www.w3.org/1999/xlink" x="0px" y="0px"
	 viewBox="0 0 360 360" style="enable-background:new 0 0 360 360;" xml:space="preserve">
<style type="text/css">
	.st0{
		fill:none;
		stroke:#18494C;
		stroke-width:12;
		stroke-linecap:square;
		stroke-miterlimit:10;
	}
	.st1{
		fill:none;
		stroke:#18494C;
		stroke-width:12;
		stroke-linecap:round;
		stroke-miterlimit:10;
	}
	.st2{
		fill:#18494C;
	}



</style>
	<g class="photo-transform">
<path class="st0" d="M8.5,145.9c0,96,0,206.6,0,206.6H256c0,0,0.1,0,0.2,0c-0.1-0.2-0.2-0.5-0.2-0.5s-40-88-40-104s0-24,32-40
	s56,16,56,16s48,72,48,80l0.5-296.5H8.5C8.5,7.5,8.5,72.4,8.5,145.9z"/>
<path class="st0" d="M256,352.5"/>
<path class="st0" d="M351.5,304"/>
<path class="st0" d="M216,248c0-16,0-24,32-40s56,16,56,16s12,18,24,37V32H32v240h190.6C218.7,261,216,252.1,216,248z"/>
<path class="st1" d="M280.8,221.5c-4.1-3.9-10.3-4.3-14.9-1C256.2,227.4,240,232,232,240c-5.7,5.7,8,32,8,32s16,24,32,16
	s32-16,32-24C304,258.1,290.9,231,280.8,221.5z"/>
<g>
	<path class="st2" d="M214,154.1c-2.2-1.1-4.2-2.2-6.3-3.3l-6.2-3.5c-4.1-2.4-8.1-4.9-12.1-7.4l-3-1.9l-1.5-1c-0.4-0.3-1.2-0.8-0.9-0.5
		c0.2,0.5,1,0.9,1.8,0.5c0,0,0.1,0,0.1-0.1h0.1l-0.1,0.2l-0.6,0.7c-0.4,0.5-0.7,1-1.1,1.5l-2.3,2.8c-1.5,1.9-3.1,3.7-4.7,5.5
		c-1.6,1.8-3.2,3.6-4.8,5.3s-3.3,3.5-4.9,5.2c-1.7,1.7-3.3,3.4-5,5.1l-0.6,0.6l-0.2,0.2l-0.1,0.1l-0.1,0.1c-0.3,0.3-0.6,0.5-1,0.8
		c-1.3,1-2.8,1.8-4.4,2.4c-3.2,1.1-6.7,1.1-9.9,0.1c-1.6-0.5-3.1-1.3-4.5-2.3c-0.7-0.5-1.3-1.1-1.9-1.7l-0.6-0.7l-0.3-0.3l-2.4-2.6
		l-4.7-5.2l-9.2-10.6l-9-10.7l-0.6-0.7l-0.3-0.3l-0.1-0.1c0,0-0.1-0.1,0,0l0.1,0.2c0.4,0.4,0.9,0.7,1.4,1c1,0.5,2.1,0.7,3.2,0.5
		c0.5-0.1,1.1-0.3,1.5-0.5c0.2-0.1,0.5-0.3,0.7-0.5c0.1-0.1,0.2-0.2,0.3-0.2l0.1-0.1c0,0,0,0-0.1,0.1l-0.2,0.1
		c-0.9,0.8-1.8,1.5-2.7,2.3c-3.6,3-7.2,6-10.8,8.9c-1.8,1.5-3.6,3-5.5,4.4l-5.5,4.3c-14.8,11.2-30,22.2-46.7,31.6l-0.8-0.9
		l20.5-19.1l20.6-19l20.6-19l2.6-2.4c0.9-0.9,2.3-1.7,3.6-1.9c1.4-0.2,2.9,0,4.1,0.7c0.6,0.3,1.2,0.8,1.7,1.3s0.8,0.9,1.2,1.4
		l9.2,10.6l9.1,10.7l4.5,5.3l2.3,2.7c0.4,0.5,0.7,0.8,1.1,1.1c0.4,0.3,0.8,0.5,1.2,0.7c0.9,0.3,1.9,0.3,2.7,0
		c0.4-0.1,0.9-0.4,1.2-0.6c0.3-0.2,0.8-0.7,1.3-1.1l5.2-4.7c3.4-3.1,6.9-6.3,10.2-9.6c1.7-1.6,3.3-3.3,5-4.9l2.4-2.5l1.2-1.3
		c0.4-0.4,0.8-0.8,1.3-1.3c1-0.9,2.4-1.4,3.8-1.5c1.4-0.1,2.8,0.3,3.9,1.1c0.6,0.4,1,0.8,1.4,1.2l1.3,1.1l2.7,2.3l21.2,18.3
		L214,154.1z"/>
</g>
<g>
	<path class="st2" d="M188.3,184c4.2-7.5,8.7-14.7,13.3-21.9s9.4-14.2,14.2-21.2s9.8-13.9,14.8-20.7c2.5-3.4,5.1-6.8,7.6-10.2l7.7-10.1l4.8-6.2
		l4.7,6.3l7.6,10.1l7.5,10.2c4.9,6.8,9.8,13.7,14.6,20.7c4.7,7,9.4,14,13.9,21.2s8.9,14.4,13,21.9c-6.2-5.9-12-12.1-17.7-18.3
		c-5.7-6.3-11.3-12.6-16.7-19.1c-5.5-6.4-10.8-13-16.1-19.5l-7.9-9.9l-7.7-10h9.5l-7.9,10c-2.7,3.3-5.3,6.6-8,9.9
		c-5.4,6.6-10.8,13.1-16.4,19.5c-5.6,6.4-11.2,12.8-17,19C200.4,171.9,194.5,178.1,188.3,184z"/>
</g>
</g>
</svg>
