<?xml version="1.0" encoding="utf-8"?>
<!-- Generator: Adobe Illustrator 21.0.0, SVG Export Plug-In . SVG Version: 6.00 Build 0)  -->
<svg version="1.1" xmlns="http://www.w3.org/2000/svg" xmlns:xlink="http://www.w3.org/1999/xlink" x="0px" y="0px"
	 viewBox="0 0 360 360" style="enable-background:new 0 0 360 360;" xml:space="preserve">
<style type="text/css">
	.st0{fill:none;stroke:#000000;stroke-width:12;stroke-linecap:round;stroke-miterlimit:10;}
	.st1{fill:none;stroke:#000000;stroke-width:12;stroke-linecap:square;stroke-miterlimit:10;}
	.st2{fill:none;}
</style>
<g id="Layer_1">
	<path class="st0" d="M384.5,15.9"/>
	<path class="st1" d="M352,288.5H16.4c-4.3,0-7.9-3.8-7.9-8.4V15.9c0-4.6,3.5-8.4,7.9-8.4H352"/>
	<path d="M128.5,149.8c-3,11.4-5.4,21.6-6.8,31.4h-0.6c-2-9.8-4.6-20-7.9-31.6l-13.8-48.4H85.7l-14.6,49.4
		c-3,10.4-5.9,20.8-7.9,30.6h-0.6c-1.7-10-4.1-20-6.6-30.8l-11.8-49.2H27.6L54.5,198h14.8l14.4-46c3.1-10.4,5.9-20.4,8.1-32h0.4
		c2.2,11.4,4.8,21,7.9,31.8l13.7,46.2h14.8l28.8-96.8h-16.1L128.5,149.8z"/>
	<path d="M266.5,149.8c-3,11.4-5.4,21.6-6.8,31.4h-0.6c-2-9.8-4.6-20-7.9-31.6l-13.8-48.4h-13.7l-14.6,49.4
		c-3,10.4-5.9,20.8-7.9,30.6h-0.6c-1.7-10-4.1-20-6.6-30.8l-11.8-49.2h-16.6l26.9,96.8h14.8l14.4-46c3.1-10.4,5.9-20.4,8.1-32h0.4
		c2.2,11.4,4.8,21,7.9,31.8l13.7,46.2h14.8l28.8-96.8h-16.1L266.5,149.8z"/>
	<path d="M347.1,150.6c-3,10.4-5.9,20.8-7.9,30.6h-0.6c-1.7-10-4.1-20-6.6-30.8l-11.8-49.2h-16.6l26.9,96.8h14.8l10.7-34.2v-43.2
		L347.1,150.6z"/>
	<line class="st2" x1="208" y1="356" x2="364" y2="356"/>
</g>
<g id="Layer_2">
	<path d="M279,200c1,1,79,77,79,77v41h-19l16,38h-19l-14-30l-30,31h-13V200z"/>
</g>
</svg>
